<svg width="72" height="150" viewBox="0 0 72 150" fill="none" xmlns="http://www.w3.org/2000/svg">
<path d="M28.6397 129H24.6397V133H28.6397V129ZM28.6397 51.6H32.6397V44.8618L26.7243 48.0884L28.6397 51.6ZM25.6397 53.04L27.2154 56.7166L27.2154 56.7166L25.6397 53.04ZM22.0397 54.6L23.5252 58.3139L23.5845 58.2902L23.643 58.2646L22.0397 54.6ZM18.4397 56.04L16.9541 52.3261L16.9088 52.3442L16.864 52.3634L18.4397 56.04ZM15.3197 57.48H11.3197V63.9522L17.1086 61.0577L15.3197 57.48ZM15.3197 42.6L13.4043 39.0884L11.3197 40.2255V42.6H15.3197ZM19.0397 40.68L20.8285 44.2577L20.8987 44.2226L20.9674 44.1849L19.0397 40.68ZM24.1997 37.8L22.2315 34.3177L22.2315 34.3177L24.1997 37.8ZM29.3597 34.68L31.5396 38.0338L31.5972 37.9963L31.6535 37.9569L29.3597 34.68ZM32.9597 31.8V27.8H31.3028L30.1313 28.9716L32.9597 31.8ZM48.6797 31.8H52.6797V27.8H48.6797V31.8ZM48.6797 129V133H52.6797V129H48.6797ZM32.6397 129V51.6H24.6397V129H32.6397ZM26.7243 48.0884C25.9754 48.4969 25.0919 48.9229 24.064 49.3634L27.2154 56.7166C28.4275 56.1971 29.544 55.6631 30.5551 55.1116L26.7243 48.0884ZM24.064 49.3634C22.9336 49.8479 21.7243 50.3719 20.4364 50.9354L23.643 58.2646C24.9151 57.7081 26.1058 57.1921 27.2154 56.7166L24.064 49.3634ZM20.5541 50.8861C20.5518 50.887 20.5494 50.888 20.5471 50.8889C20.5448 50.8898 20.5424 50.8908 20.5401 50.8917C20.5377 50.8927 20.5354 50.8936 20.533 50.8945C20.5307 50.8955 20.5283 50.8964 20.526 50.8973C20.5237 50.8983 20.5213 50.8992 20.519 50.9002C20.5166 50.9011 20.5143 50.902 20.5119 50.903C20.5096 50.9039 20.5073 50.9048 20.5049 50.9058C20.5026 50.9067 20.5002 50.9077 20.4979 50.9086C20.4955 50.9095 20.4932 50.9105 20.4908 50.9114C20.4885 50.9123 20.4862 50.9133 20.4838 50.9142C20.4815 50.9152 20.4791 50.9161 20.4768 50.917C20.4744 50.918 20.4721 50.9189 20.4698 50.9198C20.4674 50.9208 20.4651 50.9217 20.4627 50.9227C20.4604 50.9236 20.458 50.9245 20.4557 50.9255C20.4533 50.9264 20.451 50.9273 20.4487 50.9283C20.4463 50.9292 20.444 50.9302 20.4416 50.9311C20.4393 50.932 20.4369 50.933 20.4346 50.9339C20.4323 50.9348 20.4299 50.9358 20.4276 50.9367C20.4252 50.9377 20.4229 50.9386 20.4205 50.9395C20.4182 50.9405 20.4158 50.9414 20.4135 50.9423C20.4112 50.9433 20.4088 50.9442 20.4065 50.9452C20.4041 50.9461 20.4018 50.947 20.3994 50.948C20.3971 50.9489 20.3948 50.9498 20.3924 50.9508C20.3901 50.9517 20.3877 50.9527 20.3854 50.9536C20.383 50.9545 20.3807 50.9555 20.3783 50.9564C20.376 50.9573 20.3737 50.9583 20.3713 50.9592C20.369 50.9602 20.3666 50.9611 20.3643 50.962C20.3619 50.963 20.3596 50.9639 20.3573 50.9648C20.3549 50.9658 20.3526 50.9667 20.3502 50.9677C20.3479 50.9686 20.3455 50.9695 20.3432 50.9705C20.3408 50.9714 20.3385 50.9723 20.3362 50.9733C20.3338 50.9742 20.3315 50.9752 20.3291 50.9761C20.3268 50.977 20.3244 50.978 20.3221 50.9789C20.3198 50.9798 20.3174 50.9808 20.3151 50.9817C20.3127 50.9827 20.3104 50.9836 20.308 50.9845C20.3057 50.9855 20.3033 50.9864 20.301 50.9873C20.2987 50.9883 20.2963 50.9892 20.294 50.9902C20.2916 50.9911 20.2893 50.992 20.2869 50.993C20.2846 50.9939 20.2823 50.9948 20.2799 50.9958C20.2776 50.9967 20.2752 50.9977 20.2729 50.9986C20.2705 50.9995 20.2682 51.0005 20.2658 51.0014C20.2635 51.0023 20.2612 51.0033 20.2588 51.0042C20.2565 51.0052 20.2541 51.0061 20.2518 51.007C20.2494 51.008 20.2471 51.0089 20.2448 51.0098C20.2424 51.0108 20.2401 51.0117 20.2377 51.0127C20.2354 51.0136 20.233 51.0145 20.2307 51.0155C20.2283 51.0164 20.226 51.0173 20.2237 51.0183C20.2213 51.0192 20.219 51.0202 20.2166 51.0211C20.2143 51.022 20.2119 51.023 20.2096 51.0239C20.2073 51.0248 20.2049 51.0258 20.2026 51.0267C20.2002 51.0277 20.1979 51.0286 20.1955 51.0295C20.1932 51.0305 20.1908 51.0314 20.1885 51.0323C20.1862 51.0333 20.1838 51.0342 20.1815 51.0352C20.1791 51.0361 20.1768 51.037 20.1744 51.038C20.1721 51.0389 20.1698 51.0398 20.1674 51.0408C20.1651 51.0417 20.1627 51.0427 20.1604 51.0436C20.158 51.0445 20.1557 51.0455 20.1533 51.0464C20.151 51.0473 20.1487 51.0483 20.1463 51.0492C20.144 51.0502 20.1416 51.0511 20.1393 51.052C20.1369 51.053 20.1346 51.0539 20.1323 51.0548C20.1299 51.0558 20.1276 51.0567 20.1252 51.0577C20.1229 51.0586 20.1205 51.0595 20.1182 51.0605C20.1158 51.0614 20.1135 51.0623 20.1112 51.0633C20.1088 51.0642 20.1065 51.0652 20.1041 51.0661C20.1018 51.067 20.0994 51.068 20.0971 51.0689C20.0948 51.0698 20.0924 51.0708 20.0901 51.0717C20.0877 51.0727 20.0854 51.0736 20.083 51.0745C20.0807 51.0755 20.0783 51.0764 20.076 51.0773C20.0737 51.0783 20.0713 51.0792 20.069 51.0802C20.0666 51.0811 20.0643 51.082 20.0619 51.083C20.0596 51.0839 20.0573 51.0848 20.0549 51.0858C20.0526 51.0867 20.0502 51.0877 20.0479 51.0886C20.0455 51.0895 20.0432 51.0905 20.0408 51.0914C20.0385 51.0923 20.0362 51.0933 20.0338 51.0942C20.0315 51.0952 20.0291 51.0961 20.0268 51.097C20.0244 51.098 20.0221 51.0989 20.0198 51.0998C20.0174 51.1008 20.0151 51.1017 20.0127 51.1027C20.0104 51.1036 20.008 51.1045 20.0057 51.1055C20.0033 51.1064 20.001 51.1073 19.9987 51.1083C19.9963 51.1092 19.994 51.1102 19.9916 51.1111C19.9893 51.112 19.9869 51.113 19.9846 51.1139C19.9823 51.1148 19.9799 51.1158 19.9776 51.1167C19.9752 51.1177 19.9729 51.1186 19.9705 51.1195C19.9682 51.1205 19.9658 51.1214 19.9635 51.1223C19.9612 51.1233 19.9588 51.1242 19.9565 51.1252C19.9541 51.1261 19.9518 51.127 19.9494 51.128C19.9471 51.1289 19.9448 51.1298 19.9424 51.1308C19.9401 51.1317 19.9377 51.1327 19.9354 51.1336C19.933 51.1345 19.9307 51.1355 19.9283 51.1364C19.926 51.1373 19.9237 51.1383 19.9213 51.1392C19.919 51.1402 19.9166 51.1411 19.9143 51.142C19.9119 51.143 19.9096 51.1439 19.9073 51.1448C19.9049 51.1458 19.9026 51.1467 19.9002 51.1477C19.8979 51.1486 19.8955 51.1495 19.8932 51.1505C19.8908 51.1514 19.8885 51.1523 19.8862 51.1533C19.8838 51.1542 19.8815 51.1552 19.8791 51.1561C19.8768 51.157 19.8744 51.158 19.8721 51.1589C19.8698 51.1598 19.8674 51.1608 19.8651 51.1617C19.8627 51.1627 19.8604 51.1636 19.858 51.1645C19.8557 51.1655 19.8533 51.1664 19.851 51.1673C19.8487 51.1683 19.8463 51.1692 19.844 51.1702C19.8416 51.1711 19.8393 51.172 19.8369 51.173C19.8346 51.1739 19.8323 51.1748 19.8299 51.1758C19.8276 51.1767 19.8252 51.1777 19.8229 51.1786C19.8205 51.1795 19.8182 51.1805 19.8158 51.1814C19.8135 51.1823 19.8112 51.1833 19.8088 51.1842C19.8065 51.1852 19.8041 51.1861 19.8018 51.187C19.7994 51.188 19.7971 51.1889 19.7948 51.1898C19.7924 51.1908 19.7901 51.1917 19.7877 51.1927C19.7854 51.1936 19.783 51.1945 19.7807 51.1955C19.7783 51.1964 19.776 51.1973 19.7737 51.1983C19.7713 51.1992 19.769 51.2002 19.7666 51.2011C19.7643 51.202 19.7619 51.203 19.7596 51.2039C19.7573 51.2048 19.7549 51.2058 19.7526 51.2067C19.7502 51.2077 19.7479 51.2086 19.7455 51.2095C19.7432 51.2105 19.7408 51.2114 19.7385 51.2123C19.7362 51.2133 19.7338 51.2142 19.7315 51.2152C19.7291 51.2161 19.7268 51.217 19.7244 51.218C19.7221 51.2189 19.7198 51.2198 19.7174 51.2208C19.7151 51.2217 19.7127 51.2227 19.7104 51.2236C19.708 51.2245 19.7057 51.2255 19.7033 51.2264C19.701 51.2273 19.6987 51.2283 19.6963 51.2292C19.694 51.2302 19.6916 51.2311 19.6893 51.232C19.6869 51.233 19.6846 51.2339 19.6823 51.2348C19.6799 51.2358 19.6776 51.2367 19.6752 51.2377C19.6729 51.2386 19.6705 51.2395 19.6682 51.2405C19.6658 51.2414 19.6635 51.2423 19.6612 51.2433C19.6588 51.2442 19.6565 51.2452 19.6541 51.2461C19.6518 51.247 19.6494 51.248 19.6471 51.2489C19.6448 51.2498 19.6424 51.2508 19.6401 51.2517C19.6377 51.2527 19.6354 51.2536 19.633 51.2545C19.6307 51.2555 19.6283 51.2564 19.626 51.2573C19.6237 51.2583 19.6213 51.2592 19.619 51.2602C19.6166 51.2611 19.6143 51.262 19.6119 51.263C19.6096 51.2639 19.6073 51.2648 19.6049 51.2658C19.6026 51.2667 19.6002 51.2677 19.5979 51.2686C19.5955 51.2695 19.5932 51.2705 19.5908 51.2714C19.5885 51.2723 19.5862 51.2733 19.5838 51.2742C19.5815 51.2752 19.5791 51.2761 19.5768 51.277C19.5744 51.278 19.5721 51.2789 19.5698 51.2798C19.5674 51.2808 19.5651 51.2817 19.5627 51.2827C19.5604 51.2836 19.558 51.2845 19.5557 51.2855C19.5533 51.2864 19.551 51.2873 19.5487 51.2883C19.5463 51.2892 19.544 51.2902 19.5416 51.2911C19.5393 51.292 19.5369 51.293 19.5346 51.2939C19.5323 51.2948 19.5299 51.2958 19.5276 51.2967C19.5252 51.2977 19.5229 51.2986 19.5205 51.2995C19.5182 51.3005 19.5158 51.3014 19.5135 51.3023C19.5112 51.3033 19.5088 51.3042 19.5065 51.3052C19.5041 51.3061 19.5018 51.307 19.4994 51.308C19.4971 51.3089 19.4948 51.3098 19.4924 51.3108C19.4901 51.3117 19.4877 51.3127 19.4854 51.3136C19.483 51.3145 19.4807 51.3155 19.4783 51.3164C19.476 51.3173 19.4737 51.3183 19.4713 51.3192C19.469 51.3202 19.4666 51.3211 19.4643 51.322C19.4619 51.323 19.4596 51.3239 19.4573 51.3248C19.4549 51.3258 19.4526 51.3267 19.4502 51.3277C19.4479 51.3286 19.4455 51.3295 19.4432 51.3305C19.4408 51.3314 19.4385 51.3323 19.4362 51.3333C19.4338 51.3342 19.4315 51.3352 19.4291 51.3361C19.4268 51.337 19.4244 51.338 19.4221 51.3389C19.4198 51.3398 19.4174 51.3408 19.4151 51.3417C19.4127 51.3427 19.4104 51.3436 19.408 51.3445C19.4057 51.3455 19.4033 51.3464 19.401 51.3473C19.3987 51.3483 19.3963 51.3492 19.394 51.3502C19.3916 51.3511 19.3893 51.352 19.3869 51.353C19.3846 51.3539 19.3823 51.3548 19.3799 51.3558C19.3776 51.3567 19.3752 51.3577 19.3729 51.3586C19.3705 51.3595 19.3682 51.3605 19.3658 51.3614C19.3635 51.3623 19.3612 51.3633 19.3588 51.3642C19.3565 51.3652 19.3541 51.3661 19.3518 51.367C19.3494 51.368 19.3471 51.3689 19.3448 51.3698C19.3424 51.3708 19.3401 51.3717 19.3377 51.3727C19.3354 51.3736 19.333 51.3745 19.3307 51.3755C19.3283 51.3764 19.326 51.3773 19.3237 51.3783C19.3213 51.3792 19.319 51.3802 19.3166 51.3811C19.3143 51.382 19.3119 51.383 19.3096 51.3839C19.3073 51.3848 19.3049 51.3858 19.3026 51.3867C19.3002 51.3877 19.2979 51.3886 19.2955 51.3895C19.2932 51.3905 19.2908 51.3914 19.2885 51.3923C19.2862 51.3933 19.2838 51.3942 19.2815 51.3952C19.2791 51.3961 19.2768 51.397 19.2744 51.398C19.2721 51.3989 19.2698 51.3998 19.2674 51.4008C19.2651 51.4017 19.2627 51.4027 19.2604 51.4036C19.258 51.4045 19.2557 51.4055 19.2533 51.4064C19.251 51.4073 19.2487 51.4083 19.2463 51.4092C19.244 51.4102 19.2416 51.4111 19.2393 51.412C19.2369 51.413 19.2346 51.4139 19.2323 51.4148C19.2299 51.4158 19.2276 51.4167 19.2252 51.4177C19.2229 51.4186 19.2205 51.4195 19.2182 51.4205C19.2158 51.4214 19.2135 51.4223 19.2112 51.4233C19.2088 51.4242 19.2065 51.4252 19.2041 51.4261C19.2018 51.427 19.1994 51.428 19.1971 51.4289C19.1948 51.4298 19.1924 51.4308 19.1901 51.4317C19.1877 51.4327 19.1854 51.4336 19.183 51.4345C19.1807 51.4355 19.1783 51.4364 19.176 51.4373C19.1737 51.4383 19.1713 51.4392 19.169 51.4402C19.1666 51.4411 19.1643 51.442 19.1619 51.443C19.1596 51.4439 19.1573 51.4448 19.1549 51.4458C19.1526 51.4467 19.1502 51.4477 19.1479 51.4486C19.1455 51.4495 19.1432 51.4505 19.1408 51.4514C19.1385 51.4523 19.1362 51.4533 19.1338 51.4542C19.1315 51.4552 19.1291 51.4561 19.1268 51.457C19.1244 51.458 19.1221 51.4589 19.1198 51.4598C19.1174 51.4608 19.1151 51.4617 19.1127 51.4627C19.1104 51.4636 19.108 51.4645 19.1057 51.4655C19.1033 51.4664 19.101 51.4673 19.0987 51.4683C19.0963 51.4692 19.094 51.4702 19.0916 51.4711C19.0893 51.472 19.0869 51.473 19.0846 51.4739C19.0823 51.4748 19.0799 51.4758 19.0776 51.4767C19.0752 51.4777 19.0729 51.4786 19.0705 51.4795C19.0682 51.4805 19.0658 51.4814 19.0635 51.4823C19.0612 51.4833 19.0588 51.4842 19.0565 51.4852C19.0541 51.4861 19.0518 51.487 19.0494 51.488C19.0471 51.4889 19.0448 51.4898 19.0424 51.4908C19.0401 51.4917 19.0377 51.4927 19.0354 51.4936C19.033 51.4945 19.0307 51.4955 19.0283 51.4964C19.026 51.4973 19.0237 51.4983 19.0213 51.4992C19.019 51.5002 19.0166 51.5011 19.0143 51.502C19.0119 51.503 19.0096 51.5039 19.0073 51.5048C19.0049 51.5058 19.0026 51.5067 19.0002 51.5077C18.9979 51.5086 18.9955 51.5095 18.9932 51.5105C18.9908 51.5114 18.9885 51.5123 18.9862 51.5133C18.9838 51.5142 18.9815 51.5152 18.9791 51.5161C18.9768 51.517 18.9744 51.518 18.9721 51.5189C18.9698 51.5198 18.9674 51.5208 18.9651 51.5217C18.9627 51.5227 18.9604 51.5236 18.958 51.5245C18.9557 51.5255 18.9533 51.5264 18.951 51.5273C18.9487 51.5283 18.9463 51.5292 18.944 51.5302C18.9416 51.5311 18.9393 51.532 18.9369 51.533C18.9346 51.5339 18.9323 51.5348 18.9299 51.5358C18.9276 51.5367 18.9252 51.5377 18.9229 51.5386C18.9205 51.5395 18.9182 51.5405 18.9158 51.5414C18.9135 51.5423 18.9112 51.5433 18.9088 51.5442C18.9065 51.5452 18.9041 51.5461 18.9018 51.547C18.8994 51.548 18.8971 51.5489 18.8948 51.5498C18.8924 51.5508 18.8901 51.5517 18.8877 51.5527C18.8854 51.5536 18.883 51.5545 18.8807 51.5555C18.8783 51.5564 18.876 51.5573 18.8737 51.5583C18.8713 51.5592 18.869 51.5602 18.8666 51.5611C18.8643 51.562 18.8619 51.563 18.8596 51.5639C18.8573 51.5648 18.8549 51.5658 18.8526 51.5667C18.8502 51.5677 18.8479 51.5686 18.8455 51.5695C18.8432 51.5705 18.8408 51.5714 18.8385 51.5723C18.8362 51.5733 18.8338 51.5742 18.8315 51.5752C18.8291 51.5761 18.8268 51.577 18.8244 51.578C18.8221 51.5789 18.8198 51.5798 18.8174 51.5808C18.8151 51.5817 18.8127 51.5827 18.8104 51.5836C18.808 51.5845 18.8057 51.5855 18.8033 51.5864C18.801 51.5873 18.7987 51.5883 18.7963 51.5892C18.794 51.5902 18.7916 51.5911 18.7893 51.592C18.7869 51.593 18.7846 51.5939 18.7823 51.5948C18.7799 51.5958 18.7776 51.5967 18.7752 51.5977C18.7729 51.5986 18.7705 51.5995 18.7682 51.6005C18.7658 51.6014 18.7635 51.6023 18.7612 51.6033C18.7588 51.6042 18.7565 51.6052 18.7541 51.6061C18.7518 51.607 18.7494 51.608 18.7471 51.6089C18.7448 51.6098 18.7424 51.6108 18.7401 51.6117C18.7377 51.6127 18.7354 51.6136 18.733 51.6145C18.7307 51.6155 18.7283 51.6164 18.726 51.6173C18.7237 51.6183 18.7213 51.6192 18.719 51.6202C18.7166 51.6211 18.7143 51.622 18.7119 51.623C18.7096 51.6239 18.7073 51.6248 18.7049 51.6258C18.7026 51.6267 18.7002 51.6277 18.6979 51.6286C18.6955 51.6295 18.6932 51.6305 18.6908 51.6314C18.6885 51.6323 18.6862 51.6333 18.6838 51.6342C18.6815 51.6352 18.6791 51.6361 18.6768 51.637C18.6744 51.638 18.6721 51.6389 18.6698 51.6398C18.6674 51.6408 18.6651 51.6417 18.6627 51.6427C18.6604 51.6436 18.658 51.6445 18.6557 51.6455C18.6533 51.6464 18.651 51.6473 18.6487 51.6483C18.6463 51.6492 18.644 51.6502 18.6416 51.6511C18.6393 51.652 18.6369 51.653 18.6346 51.6539C18.6323 51.6548 18.6299 51.6558 18.6276 51.6567C18.6252 51.6577 18.6229 51.6586 18.6205 51.6595C18.6182 51.6605 18.6158 51.6614 18.6135 51.6623C18.6112 51.6633 18.6088 51.6642 18.6065 51.6652C18.6041 51.6661 18.6018 51.667 18.5994 51.668C18.5971 51.6689 18.5948 51.6698 18.5924 51.6708C18.5901 51.6717 18.5877 51.6727 18.5854 51.6736C18.583 51.6745 18.5807 51.6755 18.5783 51.6764C18.576 51.6773 18.5737 51.6783 18.5713 51.6792C18.569 51.6802 18.5666 51.6811 18.5643 51.682C18.5619 51.683 18.5596 51.6839 18.5573 51.6848C18.5549 51.6858 18.5526 51.6867 18.5502 51.6877C18.5479 51.6886 18.5455 51.6895 18.5432 51.6905C18.5408 51.6914 18.5385 51.6923 18.5362 51.6933C18.5338 51.6942 18.5315 51.6952 18.5291 51.6961C18.5268 51.697 18.5244 51.698 18.5221 51.6989C18.5198 51.6998 18.5174 51.7008 18.5151 51.7017C18.5127 51.7027 18.5104 51.7036 18.508 51.7045C18.5057 51.7055 18.5033 51.7064 18.501 51.7073C18.4987 51.7083 18.4963 51.7092 18.494 51.7102C18.4916 51.7111 18.4893 51.712 18.4869 51.713C18.4846 51.7139 18.4823 51.7148 18.4799 51.7158C18.4776 51.7167 18.4752 51.7177 18.4729 51.7186C18.4705 51.7195 18.4682 51.7205 18.4658 51.7214C18.4635 51.7223 18.4612 51.7233 18.4588 51.7242C18.4565 51.7252 18.4541 51.7261 18.4518 51.727C18.4494 51.728 18.4471 51.7289 18.4448 51.7298C18.4424 51.7308 18.4401 51.7317 18.4377 51.7327C18.4354 51.7336 18.433 51.7345 18.4307 51.7355C18.4283 51.7364 18.426 51.7373 18.4237 51.7383C18.4213 51.7392 18.419 51.7402 18.4166 51.7411C18.4143 51.742 18.4119 51.743 18.4096 51.7439C18.4073 51.7448 18.4049 51.7458 18.4026 51.7467C18.4002 51.7477 18.3979 51.7486 18.3955 51.7495C18.3932 51.7505 18.3908 51.7514 18.3885 51.7523C18.3862 51.7533 18.3838 51.7542 18.3815 51.7552C18.3791 51.7561 18.3768 51.757 18.3744 51.758C18.3721 51.7589 18.3698 51.7598 18.3674 51.7608C18.3651 51.7617 18.3627 51.7627 18.3604 51.7636C18.358 51.7645 18.3557 51.7655 18.3533 51.7664C18.351 51.7673 18.3487 51.7683 18.3463 51.7692C18.344 51.7702 18.3416 51.7711 18.3393 51.772C18.3369 51.773 18.3346 51.7739 18.3323 51.7748C18.3299 51.7758 18.3276 51.7767 18.3252 51.7777C18.3229 51.7786 18.3205 51.7795 18.3182 51.7805C18.3158 51.7814 18.3135 51.7823 18.3112 51.7833C18.3088 51.7842 18.3065 51.7852 18.3041 51.7861C18.3018 51.787 18.2994 51.788 18.2971 51.7889C18.2948 51.7898 18.2924 51.7908 18.2901 51.7917C18.2877 51.7927 18.2854 51.7936 18.283 51.7945C18.2807 51.7955 18.2783 51.7964 18.276 51.7973C18.2737 51.7983 18.2713 51.7992 18.269 51.8002C18.2666 51.8011 18.2643 51.802 18.2619 51.803C18.2596 51.8039 18.2573 51.8048 18.2549 51.8058C18.2526 51.8067 18.2502 51.8077 18.2479 51.8086C18.2455 51.8095 18.2432 51.8105 18.2408 51.8114C18.2385 51.8123 18.2362 51.8133 18.2338 51.8142C18.2315 51.8152 18.2291 51.8161 18.2268 51.817C18.2244 51.818 18.2221 51.8189 18.2198 51.8198C18.2174 51.8208 18.2151 51.8217 18.2127 51.8227C18.2104 51.8236 18.208 51.8245 18.2057 51.8255C18.2033 51.8264 18.201 51.8273 18.1987 51.8283C18.1963 51.8292 18.194 51.8302 18.1916 51.8311C18.1893 51.832 18.1869 51.833 18.1846 51.8339C18.1823 51.8348 18.1799 51.8358 18.1776 51.8367C18.1752 51.8377 18.1729 51.8386 18.1705 51.8395C18.1682 51.8405 18.1658 51.8414 18.1635 51.8423C18.1612 51.8433 18.1588 51.8442 18.1565 51.8452C18.1541 51.8461 18.1518 51.847 18.1494 51.848C18.1471 51.8489 18.1448 51.8498 18.1424 51.8508C18.1401 51.8517 18.1377 51.8527 18.1354 51.8536C18.133 51.8545 18.1307 51.8555 18.1283 51.8564C18.126 51.8573 18.1237 51.8583 18.1213 51.8592C18.119 51.8602 18.1166 51.8611 18.1143 51.862C18.1119 51.863 18.1096 51.8639 18.1073 51.8648C18.1049 51.8658 18.1026 51.8667 18.1002 51.8677C18.0979 51.8686 18.0955 51.8695 18.0932 51.8705C18.0908 51.8714 18.0885 51.8723 18.0862 51.8733C18.0838 51.8742 18.0815 51.8752 18.0791 51.8761C18.0768 51.877 18.0744 51.878 18.0721 51.8789C18.0698 51.8798 18.0674 51.8808 18.0651 51.8817C18.0627 51.8827 18.0604 51.8836 18.058 51.8845C18.0557 51.8855 18.0533 51.8864 18.051 51.8873C18.0487 51.8883 18.0463 51.8892 18.044 51.8902C18.0416 51.8911 18.0393 51.892 18.0369 51.893C18.0346 51.8939 18.0323 51.8948 18.0299 51.8958C18.0276 51.8967 18.0252 51.8977 18.0229 51.8986C18.0205 51.8995 18.0182 51.9005 18.0158 51.9014C18.0135 51.9023 18.0112 51.9033 18.0088 51.9042C18.0065 51.9052 18.0041 51.9061 18.0018 51.907C17.9994 51.908 17.9971 51.9089 17.9948 51.9098C17.9924 51.9108 17.9901 51.9117 17.9877 51.9127C17.9854 51.9136 17.983 51.9145 17.9807 51.9155C17.9783 51.9164 17.976 51.9173 17.9737 51.9183C17.9713 51.9192 17.969 51.9202 17.9666 51.9211C17.9643 51.922 17.9619 51.923 17.9596 51.9239C17.9573 51.9248 17.9549 51.9258 17.9526 51.9267C17.9502 51.9277 17.9479 51.9286 17.9455 51.9295C17.9432 51.9305 17.9408 51.9314 17.9385 51.9323C17.9362 51.9333 17.9338 51.9342 17.9315 51.9352C17.9291 51.9361 17.9268 51.937 17.9244 51.938C17.9221 51.9389 17.9198 51.9398 17.9174 51.9408C17.9151 51.9417 17.9127 51.9427 17.9104 51.9436C17.908 51.9445 17.9057 51.9455 17.9033 51.9464C17.901 51.9473 17.8987 51.9483 17.8963 51.9492C17.894 51.9502 17.8916 51.9511 17.8893 51.952C17.8869 51.953 17.8846 51.9539 17.8823 51.9548C17.8799 51.9558 17.8776 51.9567 17.8752 51.9577C17.8729 51.9586 17.8705 51.9595 17.8682 51.9605C17.8658 51.9614 17.8635 51.9623 17.8612 51.9633C17.8588 51.9642 17.8565 51.9652 17.8541 51.9661C17.8518 51.967 17.8494 51.968 17.8471 51.9689C17.8448 51.9698 17.8424 51.9708 17.8401 51.9717C17.8377 51.9727 17.8354 51.9736 17.833 51.9745C17.8307 51.9755 17.8283 51.9764 17.826 51.9773C17.8237 51.9783 17.8213 51.9792 17.819 51.9802C17.8166 51.9811 17.8143 51.982 17.8119 51.983C17.8096 51.9839 17.8073 51.9848 17.8049 51.9858C17.8026 51.9867 17.8002 51.9877 17.7979 51.9886C17.7955 51.9895 17.7932 51.9905 17.7908 51.9914C17.7885 51.9923 17.7862 51.9933 17.7838 51.9942C17.7815 51.9952 17.7791 51.9961 17.7768 51.997C17.7744 51.998 17.7721 51.9989 17.7698 51.9998C17.7674 52.0008 17.7651 52.0017 17.7627 52.0027C17.7604 52.0036 17.758 52.0045 17.7557 52.0055C17.7533 52.0064 17.751 52.0073 17.7487 52.0083C17.7463 52.0092 17.744 52.0102 17.7416 52.0111C17.7393 52.012 17.7369 52.013 17.7346 52.0139C17.7323 52.0148 17.7299 52.0158 17.7276 52.0167C17.7252 52.0177 17.7229 52.0186 17.7205 52.0195C17.7182 52.0205 17.7158 52.0214 17.7135 52.0223C17.7112 52.0233 17.7088 52.0242 17.7065 52.0252C17.7041 52.0261 17.7018 52.027 17.6994 52.028C17.6971 52.0289 17.6948 52.0298 17.6924 52.0308C17.6901 52.0317 17.6877 52.0327 17.6854 52.0336C17.683 52.0345 17.6807 52.0355 17.6783 52.0364C17.676 52.0373 17.6737 52.0383 17.6713 52.0392C17.669 52.0402 17.6666 52.0411 17.6643 52.042C17.6619 52.043 17.6596 52.0439 17.6573 52.0448C17.6549 52.0458 17.6526 52.0467 17.6502 52.0477C17.6479 52.0486 17.6455 52.0495 17.6432 52.0505C17.6408 52.0514 17.6385 52.0523 17.6362 52.0533C17.6338 52.0542 17.6315 52.0552 17.6291 52.0561C17.6268 52.057 17.6244 52.058 17.6221 52.0589C17.6198 52.0598 17.6174 52.0608 17.6151 52.0617C17.6127 52.0627 17.6104 52.0636 17.608 52.0645C17.6057 52.0655 17.6033 52.0664 17.601 52.0673C17.5987 52.0683 17.5963 52.0692 17.594 52.0702C17.5916 52.0711 17.5893 52.072 17.5869 52.073C17.5846 52.0739 17.5823 52.0748 17.5799 52.0758C17.5776 52.0767 17.5752 52.0777 17.5729 52.0786C17.5705 52.0795 17.5682 52.0805 17.5658 52.0814C17.5635 52.0823 17.5612 52.0833 17.5588 52.0842C17.5565 52.0852 17.5541 52.0861 17.5518 52.087C17.5494 52.088 17.5471 52.0889 17.5448 52.0898C17.5424 52.0908 17.5401 52.0917 17.5377 52.0927C17.5354 52.0936 17.533 52.0945 17.5307 52.0955C17.5283 52.0964 17.526 52.0973 17.5237 52.0983C17.5213 52.0992 17.519 52.1002 17.5166 52.1011C17.5143 52.102 17.5119 52.103 17.5096 52.1039C17.5073 52.1048 17.5049 52.1058 17.5026 52.1067C17.5002 52.1077 17.4979 52.1086 17.4955 52.1095C17.4932 52.1105 17.4908 52.1114 17.4885 52.1123C17.4862 52.1133 17.4838 52.1142 17.4815 52.1152C17.4791 52.1161 17.4768 52.117 17.4744 52.118C17.4721 52.1189 17.4698 52.1198 17.4674 52.1208C17.4651 52.1217 17.4627 52.1227 17.4604 52.1236C17.458 52.1245 17.4557 52.1255 17.4533 52.1264C17.451 52.1273 17.4487 52.1283 17.4463 52.1292C17.444 52.1301 17.4416 52.1311 17.4393 52.132C17.4369 52.133 17.4346 52.1339 17.4323 52.1348C17.4299 52.1358 17.4276 52.1367 17.4252 52.1376C17.4229 52.1386 17.4205 52.1395 17.4182 52.1405C17.4158 52.1414 17.4135 52.1423 17.4112 52.1433C17.4088 52.1442 17.4065 52.1451 17.4041 52.1461C17.4018 52.147 17.3994 52.148 17.3971 52.1489C17.3948 52.1498 17.3924 52.1508 17.3901 52.1517C17.3877 52.1526 17.3854 52.1536 17.383 52.1545C17.3807 52.1555 17.3783 52.1564 17.376 52.1573C17.3737 52.1583 17.3713 52.1592 17.369 52.1601C17.3666 52.1611 17.3643 52.162 17.3619 52.163C17.3596 52.1639 17.3573 52.1648 17.3549 52.1658C17.3526 52.1667 17.3502 52.1676 17.3479 52.1686C17.3455 52.1695 17.3432 52.1705 17.3408 52.1714C17.3385 52.1723 17.3362 52.1733 17.3338 52.1742C17.3315 52.1751 17.3291 52.1761 17.3268 52.177C17.3244 52.178 17.3221 52.1789 17.3198 52.1798C17.3174 52.1808 17.3151 52.1817 17.3127 52.1826C17.3104 52.1836 17.308 52.1845 17.3057 52.1855C17.3033 52.1864 17.301 52.1873 17.2987 52.1883C17.2963 52.1892 17.294 52.1901 17.2916 52.1911C17.2893 52.192 17.2869 52.193 17.2846 52.1939C17.2823 52.1948 17.2799 52.1958 17.2776 52.1967C17.2752 52.1976 17.2729 52.1986 17.2705 52.1995C17.2682 52.2005 17.2658 52.2014 17.2635 52.2023C17.2612 52.2033 17.2588 52.2042 17.2565 52.2051C17.2541 52.2061 17.2518 52.207 17.2494 52.208C17.2471 52.2089 17.2448 52.2098 17.2424 52.2108C17.2401 52.2117 17.2377 52.2126 17.2354 52.2136C17.233 52.2145 17.2307 52.2155 17.2283 52.2164C17.226 52.2173 17.2237 52.2183 17.2213 52.2192C17.219 52.2201 17.2166 52.2211 17.2143 52.222C17.2119 52.223 17.2096 52.2239 17.2073 52.2248C17.2049 52.2258 17.2026 52.2267 17.2002 52.2276C17.1979 52.2286 17.1955 52.2295 17.1932 52.2305C17.1908 52.2314 17.1885 52.2323 17.1862 52.2333C17.1838 52.2342 17.1815 52.2351 17.1791 52.2361C17.1768 52.237 17.1744 52.238 17.1721 52.2389C17.1698 52.2398 17.1674 52.2408 17.1651 52.2417C17.1627 52.2426 17.1604 52.2436 17.158 52.2445C17.1557 52.2455 17.1533 52.2464 17.151 52.2473C17.1487 52.2483 17.1463 52.2492 17.144 52.2501C17.1416 52.2511 17.1393 52.252 17.1369 52.253C17.1346 52.2539 17.1323 52.2548 17.1299 52.2558C17.1276 52.2567 17.1252 52.2576 17.1229 52.2586C17.1205 52.2595 17.1182 52.2605 17.1158 52.2614C17.1135 52.2623 17.1112 52.2633 17.1088 52.2642C17.1065 52.2651 17.1041 52.2661 17.1018 52.267C17.0994 52.268 17.0971 52.2689 17.0948 52.2698C17.0924 52.2708 17.0901 52.2717 17.0877 52.2726C17.0854 52.2736 17.083 52.2745 17.0807 52.2755C17.0783 52.2764 17.076 52.2773 17.0737 52.2783C17.0713 52.2792 17.069 52.2801 17.0666 52.2811C17.0643 52.282 17.0619 52.283 17.0596 52.2839C17.0573 52.2848 17.0549 52.2858 17.0526 52.2867C17.0502 52.2876 17.0479 52.2886 17.0455 52.2895C17.0432 52.2905 17.0408 52.2914 17.0385 52.2923C17.0362 52.2933 17.0338 52.2942 17.0315 52.2951C17.0291 52.2961 17.0268 52.297 17.0244 52.298C17.0221 52.2989 17.0198 52.2998 17.0174 52.3008C17.0151 52.3017 17.0127 52.3026 17.0104 52.3036C17.008 52.3045 17.0057 52.3055 17.0033 52.3064C17.001 52.3073 16.9987 52.3083 16.9963 52.3092C16.994 52.3101 16.9916 52.3111 16.9893 52.312C16.9869 52.313 16.9846 52.3139 16.9823 52.3148C16.9799 52.3158 16.9776 52.3167 16.9752 52.3176C16.9729 52.3186 16.9705 52.3195 16.9682 52.3205C16.9658 52.3214 16.9635 52.3223 16.9612 52.3233C16.9588 52.3242 16.9565 52.3251 16.9541 52.3261L19.9252 59.7539C19.9276 59.753 19.9299 59.752 19.9323 59.7511C19.9346 59.7502 19.937 59.7492 19.9393 59.7483C19.9417 59.7473 19.944 59.7464 19.9463 59.7455C19.9487 59.7445 19.951 59.7436 19.9534 59.7427C19.9557 59.7417 19.9581 59.7408 19.9604 59.7398C19.9627 59.7389 19.9651 59.738 19.9674 59.737C19.9698 59.7361 19.9721 59.7352 19.9745 59.7342C19.9768 59.7333 19.9792 59.7323 19.9815 59.7314C19.9838 59.7305 19.9862 59.7295 19.9885 59.7286C19.9909 59.7277 19.9932 59.7267 19.9956 59.7258C19.9979 59.7248 20.0002 59.7239 20.0026 59.723C20.0049 59.722 20.0073 59.7211 20.0096 59.7202C20.012 59.7192 20.0143 59.7183 20.0167 59.7173C20.019 59.7164 20.0213 59.7155 20.0237 59.7145C20.026 59.7136 20.0284 59.7127 20.0307 59.7117C20.0331 59.7108 20.0354 59.7098 20.0377 59.7089C20.0401 59.708 20.0424 59.707 20.0448 59.7061C20.0471 59.7052 20.0495 59.7042 20.0518 59.7033C20.0542 59.7023 20.0565 59.7014 20.0588 59.7005C20.0612 59.6995 20.0635 59.6986 20.0659 59.6977C20.0682 59.6967 20.0706 59.6958 20.0729 59.6948C20.0752 59.6939 20.0776 59.693 20.0799 59.692C20.0823 59.6911 20.0846 59.6902 20.087 59.6892C20.0893 59.6883 20.0917 59.6873 20.094 59.6864C20.0963 59.6855 20.0987 59.6845 20.101 59.6836C20.1034 59.6827 20.1057 59.6817 20.1081 59.6808C20.1104 59.6798 20.1127 59.6789 20.1151 59.678C20.1174 59.677 20.1198 59.6761 20.1221 59.6752C20.1245 59.6742 20.1268 59.6733 20.1292 59.6723C20.1315 59.6714 20.1338 59.6705 20.1362 59.6695C20.1385 59.6686 20.1409 59.6677 20.1432 59.6667C20.1456 59.6658 20.1479 59.6648 20.1502 59.6639C20.1526 59.663 20.1549 59.662 20.1573 59.6611C20.1596 59.6602 20.162 59.6592 20.1643 59.6583C20.1667 59.6573 20.169 59.6564 20.1713 59.6555C20.1737 59.6545 20.176 59.6536 20.1784 59.6527C20.1807 59.6517 20.1831 59.6508 20.1854 59.6498C20.1877 59.6489 20.1901 59.648 20.1924 59.647C20.1948 59.6461 20.1971 59.6452 20.1995 59.6442C20.2018 59.6433 20.2042 59.6423 20.2065 59.6414C20.2088 59.6405 20.2112 59.6395 20.2135 59.6386C20.2159 59.6377 20.2182 59.6367 20.2206 59.6358C20.2229 59.6348 20.2252 59.6339 20.2276 59.633C20.2299 59.632 20.2323 59.6311 20.2346 59.6302C20.237 59.6292 20.2393 59.6283 20.2417 59.6273C20.244 59.6264 20.2463 59.6255 20.2487 59.6245C20.251 59.6236 20.2534 59.6227 20.2557 59.6217C20.2581 59.6208 20.2604 59.6198 20.2627 59.6189C20.2651 59.618 20.2674 59.617 20.2698 59.6161C20.2721 59.6152 20.2745 59.6142 20.2768 59.6133C20.2792 59.6123 20.2815 59.6114 20.2838 59.6105C20.2862 59.6095 20.2885 59.6086 20.2909 59.6077C20.2932 59.6067 20.2956 59.6058 20.2979 59.6048C20.3002 59.6039 20.3026 59.603 20.3049 59.602C20.3073 59.6011 20.3096 59.6002 20.312 59.5992C20.3143 59.5983 20.3167 59.5973 20.319 59.5964C20.3213 59.5955 20.3237 59.5945 20.326 59.5936C20.3284 59.5927 20.3307 59.5917 20.3331 59.5908C20.3354 59.5898 20.3377 59.5889 20.3401 59.588C20.3424 59.587 20.3448 59.5861 20.3471 59.5852C20.3495 59.5842 20.3518 59.5833 20.3542 59.5823C20.3565 59.5814 20.3588 59.5805 20.3612 59.5795C20.3635 59.5786 20.3659 59.5777 20.3682 59.5767C20.3706 59.5758 20.3729 59.5748 20.3752 59.5739C20.3776 59.573 20.3799 59.572 20.3823 59.5711C20.3846 59.5702 20.387 59.5692 20.3893 59.5683C20.3917 59.5673 20.394 59.5664 20.3963 59.5655C20.3987 59.5645 20.401 59.5636 20.4034 59.5627C20.4057 59.5617 20.4081 59.5608 20.4104 59.5598C20.4127 59.5589 20.4151 59.558 20.4174 59.557C20.4198 59.5561 20.4221 59.5552 20.4245 59.5542C20.4268 59.5533 20.4292 59.5523 20.4315 59.5514C20.4338 59.5505 20.4362 59.5495 20.4385 59.5486C20.4409 59.5477 20.4432 59.5467 20.4456 59.5458C20.4479 59.5448 20.4502 59.5439 20.4526 59.543C20.4549 59.542 20.4573 59.5411 20.4596 59.5402C20.462 59.5392 20.4643 59.5383 20.4667 59.5373C20.469 59.5364 20.4713 59.5355 20.4737 59.5345C20.476 59.5336 20.4784 59.5327 20.4807 59.5317C20.4831 59.5308 20.4854 59.5298 20.4877 59.5289C20.4901 59.528 20.4924 59.527 20.4948 59.5261C20.4971 59.5252 20.4995 59.5242 20.5018 59.5233C20.5042 59.5223 20.5065 59.5214 20.5088 59.5205C20.5112 59.5195 20.5135 59.5186 20.5159 59.5177C20.5182 59.5167 20.5206 59.5158 20.5229 59.5148C20.5252 59.5139 20.5276 59.513 20.5299 59.512C20.5323 59.5111 20.5346 59.5102 20.537 59.5092C20.5393 59.5083 20.5417 59.5073 20.544 59.5064C20.5463 59.5055 20.5487 59.5045 20.551 59.5036C20.5534 59.5027 20.5557 59.5017 20.5581 59.5008C20.5604 59.4998 20.5627 59.4989 20.5651 59.498C20.5674 59.497 20.5698 59.4961 20.5721 59.4952C20.5745 59.4942 20.5768 59.4933 20.5792 59.4923C20.5815 59.4914 20.5838 59.4905 20.5862 59.4895C20.5885 59.4886 20.5909 59.4877 20.5932 59.4867C20.5956 59.4858 20.5979 59.4848 20.6002 59.4839C20.6026 59.483 20.6049 59.482 20.6073 59.4811C20.6096 59.4802 20.612 59.4792 20.6143 59.4783C20.6167 59.4773 20.619 59.4764 20.6213 59.4755C20.6237 59.4745 20.626 59.4736 20.6284 59.4727C20.6307 59.4717 20.6331 59.4708 20.6354 59.4698C20.6377 59.4689 20.6401 59.468 20.6424 59.467C20.6448 59.4661 20.6471 59.4652 20.6495 59.4642C20.6518 59.4633 20.6542 59.4623 20.6565 59.4614C20.6588 59.4605 20.6612 59.4595 20.6635 59.4586C20.6659 59.4577 20.6682 59.4567 20.6706 59.4558C20.6729 59.4548 20.6752 59.4539 20.6776 59.453C20.6799 59.452 20.6823 59.4511 20.6846 59.4502C20.687 59.4492 20.6893 59.4483 20.6917 59.4473C20.694 59.4464 20.6963 59.4455 20.6987 59.4445C20.701 59.4436 20.7034 59.4427 20.7057 59.4417C20.7081 59.4408 20.7104 59.4398 20.7127 59.4389C20.7151 59.438 20.7174 59.437 20.7198 59.4361C20.7221 59.4352 20.7245 59.4342 20.7268 59.4333C20.7292 59.4323 20.7315 59.4314 20.7338 59.4305C20.7362 59.4295 20.7385 59.4286 20.7409 59.4277C20.7432 59.4267 20.7456 59.4258 20.7479 59.4248C20.7502 59.4239 20.7526 59.423 20.7549 59.422C20.7573 59.4211 20.7596 59.4202 20.762 59.4192C20.7643 59.4183 20.7667 59.4173 20.769 59.4164C20.7713 59.4155 20.7737 59.4145 20.776 59.4136C20.7784 59.4127 20.7807 59.4117 20.7831 59.4108C20.7854 59.4098 20.7877 59.4089 20.7901 59.408C20.7924 59.407 20.7948 59.4061 20.7971 59.4052C20.7995 59.4042 20.8018 59.4033 20.8042 59.4023C20.8065 59.4014 20.8088 59.4005 20.8112 59.3995C20.8135 59.3986 20.8159 59.3977 20.8182 59.3967C20.8206 59.3958 20.8229 59.3948 20.8252 59.3939C20.8276 59.393 20.8299 59.392 20.8323 59.3911C20.8346 59.3902 20.837 59.3892 20.8393 59.3883C20.8417 59.3873 20.844 59.3864 20.8463 59.3855C20.8487 59.3845 20.851 59.3836 20.8534 59.3827C20.8557 59.3817 20.8581 59.3808 20.8604 59.3798C20.8627 59.3789 20.8651 59.378 20.8674 59.377C20.8698 59.3761 20.8721 59.3752 20.8745 59.3742C20.8768 59.3733 20.8792 59.3723 20.8815 59.3714C20.8838 59.3705 20.8862 59.3695 20.8885 59.3686C20.8909 59.3677 20.8932 59.3667 20.8956 59.3658C20.8979 59.3648 20.9002 59.3639 20.9026 59.363C20.9049 59.362 20.9073 59.3611 20.9096 59.3602C20.912 59.3592 20.9143 59.3583 20.9167 59.3573C20.919 59.3564 20.9213 59.3555 20.9237 59.3545C20.926 59.3536 20.9284 59.3527 20.9307 59.3517C20.9331 59.3508 20.9354 59.3498 20.9377 59.3489C20.9401 59.348 20.9424 59.347 20.9448 59.3461C20.9471 59.3452 20.9495 59.3442 20.9518 59.3433C20.9542 59.3423 20.9565 59.3414 20.9588 59.3405C20.9612 59.3395 20.9635 59.3386 20.9659 59.3377C20.9682 59.3367 20.9706 59.3358 20.9729 59.3348C20.9752 59.3339 20.9776 59.333 20.9799 59.332C20.9823 59.3311 20.9846 59.3302 20.987 59.3292C20.9893 59.3283 20.9917 59.3273 20.994 59.3264C20.9963 59.3255 20.9987 59.3245 21.001 59.3236C21.0034 59.3227 21.0057 59.3217 21.0081 59.3208C21.0104 59.3198 21.0127 59.3189 21.0151 59.318C21.0174 59.317 21.0198 59.3161 21.0221 59.3152C21.0245 59.3142 21.0268 59.3133 21.0292 59.3123C21.0315 59.3114 21.0338 59.3105 21.0362 59.3095C21.0385 59.3086 21.0409 59.3077 21.0432 59.3067C21.0456 59.3058 21.0479 59.3048 21.0502 59.3039C21.0526 59.303 21.0549 59.302 21.0573 59.3011C21.0596 59.3002 21.062 59.2992 21.0643 59.2983C21.0667 59.2973 21.069 59.2964 21.0713 59.2955C21.0737 59.2945 21.076 59.2936 21.0784 59.2927C21.0807 59.2917 21.0831 59.2908 21.0854 59.2898C21.0877 59.2889 21.0901 59.288 21.0924 59.287C21.0948 59.2861 21.0971 59.2852 21.0995 59.2842C21.1018 59.2833 21.1042 59.2823 21.1065 59.2814C21.1088 59.2805 21.1112 59.2795 21.1135 59.2786C21.1159 59.2777 21.1182 59.2767 21.1206 59.2758C21.1229 59.2748 21.1252 59.2739 21.1276 59.273C21.1299 59.272 21.1323 59.2711 21.1346 59.2702C21.137 59.2692 21.1393 59.2683 21.1417 59.2673C21.144 59.2664 21.1463 59.2655 21.1487 59.2645C21.151 59.2636 21.1534 59.2627 21.1557 59.2617C21.1581 59.2608 21.1604 59.2598 21.1627 59.2589C21.1651 59.258 21.1674 59.257 21.1698 59.2561C21.1721 59.2552 21.1745 59.2542 21.1768 59.2533C21.1792 59.2523 21.1815 59.2514 21.1838 59.2505C21.1862 59.2495 21.1885 59.2486 21.1909 59.2477C21.1932 59.2467 21.1956 59.2458 21.1979 59.2448C21.2002 59.2439 21.2026 59.243 21.2049 59.242C21.2073 59.2411 21.2096 59.2402 21.212 59.2392C21.2143 59.2383 21.2167 59.2373 21.219 59.2364C21.2213 59.2355 21.2237 59.2345 21.226 59.2336C21.2284 59.2327 21.2307 59.2317 21.2331 59.2308C21.2354 59.2298 21.2377 59.2289 21.2401 59.228C21.2424 59.227 21.2448 59.2261 21.2471 59.2252C21.2495 59.2242 21.2518 59.2233 21.2542 59.2223C21.2565 59.2214 21.2588 59.2205 21.2612 59.2195C21.2635 59.2186 21.2659 59.2177 21.2682 59.2167C21.2706 59.2158 21.2729 59.2148 21.2752 59.2139C21.2776 59.213 21.2799 59.212 21.2823 59.2111C21.2846 59.2102 21.287 59.2092 21.2893 59.2083C21.2917 59.2073 21.294 59.2064 21.2963 59.2055C21.2987 59.2045 21.301 59.2036 21.3034 59.2027C21.3057 59.2017 21.3081 59.2008 21.3104 59.1998C21.3127 59.1989 21.3151 59.198 21.3174 59.197C21.3198 59.1961 21.3221 59.1952 21.3245 59.1942C21.3268 59.1933 21.3292 59.1923 21.3315 59.1914C21.3338 59.1905 21.3362 59.1895 21.3385 59.1886C21.3409 59.1877 21.3432 59.1867 21.3456 59.1858C21.3479 59.1848 21.3502 59.1839 21.3526 59.183C21.3549 59.182 21.3573 59.1811 21.3596 59.1802C21.362 59.1792 21.3643 59.1783 21.3667 59.1773C21.369 59.1764 21.3713 59.1755 21.3737 59.1745C21.376 59.1736 21.3784 59.1727 21.3807 59.1717C21.3831 59.1708 21.3854 59.1698 21.3877 59.1689C21.3901 59.168 21.3924 59.167 21.3948 59.1661C21.3971 59.1652 21.3995 59.1642 21.4018 59.1633C21.4042 59.1623 21.4065 59.1614 21.4088 59.1605C21.4112 59.1595 21.4135 59.1586 21.4159 59.1577C21.4182 59.1567 21.4206 59.1558 21.4229 59.1548C21.4252 59.1539 21.4276 59.153 21.4299 59.152C21.4323 59.1511 21.4346 59.1502 21.437 59.1492C21.4393 59.1483 21.4417 59.1473 21.444 59.1464C21.4463 59.1455 21.4487 59.1445 21.451 59.1436C21.4534 59.1427 21.4557 59.1417 21.4581 59.1408C21.4604 59.1398 21.4627 59.1389 21.4651 59.138C21.4674 59.137 21.4698 59.1361 21.4721 59.1352C21.4745 59.1342 21.4768 59.1333 21.4792 59.1323C21.4815 59.1314 21.4838 59.1305 21.4862 59.1295C21.4885 59.1286 21.4909 59.1277 21.4932 59.1267C21.4956 59.1258 21.4979 59.1248 21.5002 59.1239C21.5026 59.123 21.5049 59.122 21.5073 59.1211C21.5096 59.1202 21.512 59.1192 21.5143 59.1183C21.5167 59.1173 21.519 59.1164 21.5213 59.1155C21.5237 59.1145 21.526 59.1136 21.5284 59.1127C21.5307 59.1117 21.5331 59.1108 21.5354 59.1098C21.5377 59.1089 21.5401 59.108 21.5424 59.107C21.5448 59.1061 21.5471 59.1052 21.5495 59.1042C21.5518 59.1033 21.5542 59.1023 21.5565 59.1014C21.5588 59.1005 21.5612 59.0995 21.5635 59.0986C21.5659 59.0977 21.5682 59.0967 21.5706 59.0958C21.5729 59.0948 21.5752 59.0939 21.5776 59.093C21.5799 59.092 21.5823 59.0911 21.5846 59.0902C21.587 59.0892 21.5893 59.0883 21.5917 59.0873C21.594 59.0864 21.5963 59.0855 21.5987 59.0845C21.601 59.0836 21.6034 59.0827 21.6057 59.0817C21.6081 59.0808 21.6104 59.0798 21.6127 59.0789C21.6151 59.078 21.6174 59.077 21.6198 59.0761C21.6221 59.0752 21.6245 59.0742 21.6268 59.0733C21.6292 59.0723 21.6315 59.0714 21.6338 59.0705C21.6362 59.0695 21.6385 59.0686 21.6409 59.0677C21.6432 59.0667 21.6456 59.0658 21.6479 59.0648C21.6502 59.0639 21.6526 59.063 21.6549 59.062C21.6573 59.0611 21.6596 59.0602 21.662 59.0592C21.6643 59.0583 21.6667 59.0573 21.669 59.0564C21.6713 59.0555 21.6737 59.0545 21.676 59.0536C21.6784 59.0527 21.6807 59.0517 21.6831 59.0508C21.6854 59.0498 21.6877 59.0489 21.6901 59.048C21.6924 59.047 21.6948 59.0461 21.6971 59.0452C21.6995 59.0442 21.7018 59.0433 21.7042 59.0423C21.7065 59.0414 21.7088 59.0405 21.7112 59.0395C21.7135 59.0386 21.7159 59.0377 21.7182 59.0367C21.7206 59.0358 21.7229 59.0348 21.7252 59.0339C21.7276 59.033 21.7299 59.032 21.7323 59.0311C21.7346 59.0302 21.737 59.0292 21.7393 59.0283C21.7417 59.0273 21.744 59.0264 21.7463 59.0255C21.7487 59.0245 21.751 59.0236 21.7534 59.0227C21.7557 59.0217 21.7581 59.0208 21.7604 59.0198C21.7627 59.0189 21.7651 59.018 21.7674 59.017C21.7698 59.0161 21.7721 59.0152 21.7745 59.0142C21.7768 59.0133 21.7792 59.0123 21.7815 59.0114C21.7838 59.0105 21.7862 59.0095 21.7885 59.0086C21.7909 59.0077 21.7932 59.0067 21.7956 59.0058C21.7979 59.0048 21.8002 59.0039 21.8026 59.003C21.8049 59.002 21.8073 59.0011 21.8096 59.0002C21.812 58.9992 21.8143 58.9983 21.8167 58.9973C21.819 58.9964 21.8213 58.9955 21.8237 58.9945C21.826 58.9936 21.8284 58.9927 21.8307 58.9917C21.8331 58.9908 21.8354 58.9898 21.8377 58.9889C21.8401 58.988 21.8424 58.987 21.8448 58.9861C21.8471 58.9852 21.8495 58.9842 21.8518 58.9833C21.8542 58.9823 21.8565 58.9814 21.8588 58.9805C21.8612 58.9795 21.8635 58.9786 21.8659 58.9777C21.8682 58.9767 21.8706 58.9758 21.8729 58.9748C21.8752 58.9739 21.8776 58.973 21.8799 58.972C21.8823 58.9711 21.8846 58.9702 21.887 58.9692C21.8893 58.9683 21.8917 58.9673 21.894 58.9664C21.8963 58.9655 21.8987 58.9645 21.901 58.9636C21.9034 58.9627 21.9057 58.9617 21.9081 58.9608C21.9104 58.9598 21.9127 58.9589 21.9151 58.958C21.9174 58.957 21.9198 58.9561 21.9221 58.9552C21.9245 58.9542 21.9268 58.9533 21.9292 58.9523C21.9315 58.9514 21.9338 58.9505 21.9362 58.9495C21.9385 58.9486 21.9409 58.9477 21.9432 58.9467C21.9456 58.9458 21.9479 58.9448 21.9502 58.9439C21.9526 58.943 21.9549 58.942 21.9573 58.9411C21.9596 58.9402 21.962 58.9392 21.9643 58.9383C21.9667 58.9373 21.969 58.9364 21.9713 58.9355C21.9737 58.9345 21.976 58.9336 21.9784 58.9327C21.9807 58.9317 21.9831 58.9308 21.9854 58.9298C21.9877 58.9289 21.9901 58.928 21.9924 58.927C21.9948 58.9261 21.9971 58.9252 21.9995 58.9242C22.0018 58.9233 22.0042 58.9223 22.0065 58.9214C22.0088 58.9205 22.0112 58.9195 22.0135 58.9186C22.0159 58.9177 22.0182 58.9167 22.0206 58.9158C22.0229 58.9148 22.0252 58.9139 22.0276 58.913C22.0299 58.912 22.0323 58.9111 22.0346 58.9102C22.037 58.9092 22.0393 58.9083 22.0417 58.9073C22.044 58.9064 22.0463 58.9055 22.0487 58.9045C22.051 58.9036 22.0534 58.9027 22.0557 58.9017C22.0581 58.9008 22.0604 58.8998 22.0627 58.8989C22.0651 58.898 22.0674 58.897 22.0698 58.8961C22.0721 58.8952 22.0745 58.8942 22.0768 58.8933C22.0792 58.8923 22.0815 58.8914 22.0838 58.8905C22.0862 58.8895 22.0885 58.8886 22.0909 58.8877C22.0932 58.8867 22.0956 58.8858 22.0979 58.8848C22.1002 58.8839 22.1026 58.883 22.1049 58.882C22.1073 58.8811 22.1096 58.8802 22.112 58.8792C22.1143 58.8783 22.1167 58.8773 22.119 58.8764C22.1213 58.8755 22.1237 58.8745 22.126 58.8736C22.1284 58.8727 22.1307 58.8717 22.1331 58.8708C22.1354 58.8698 22.1377 58.8689 22.1401 58.868C22.1424 58.867 22.1448 58.8661 22.1471 58.8652C22.1495 58.8642 22.1518 58.8633 22.1542 58.8623C22.1565 58.8614 22.1588 58.8605 22.1612 58.8595C22.1635 58.8586 22.1659 58.8577 22.1682 58.8567C22.1706 58.8558 22.1729 58.8548 22.1752 58.8539C22.1776 58.853 22.1799 58.852 22.1823 58.8511C22.1846 58.8502 22.187 58.8492 22.1893 58.8483C22.1917 58.8473 22.194 58.8464 22.1963 58.8455C22.1987 58.8445 22.201 58.8436 22.2034 58.8427C22.2057 58.8417 22.2081 58.8408 22.2104 58.8398C22.2127 58.8389 22.2151 58.838 22.2174 58.837C22.2198 58.8361 22.2221 58.8352 22.2245 58.8342C22.2268 58.8333 22.2292 58.8323 22.2315 58.8314C22.2338 58.8305 22.2362 58.8295 22.2385 58.8286C22.2409 58.8277 22.2432 58.8267 22.2456 58.8258C22.2479 58.8248 22.2502 58.8239 22.2526 58.823C22.2549 58.822 22.2573 58.8211 22.2596 58.8202C22.262 58.8192 22.2643 58.8183 22.2667 58.8173C22.269 58.8164 22.2713 58.8155 22.2737 58.8145C22.276 58.8136 22.2784 58.8127 22.2807 58.8117C22.2831 58.8108 22.2854 58.8098 22.2877 58.8089C22.2901 58.808 22.2924 58.807 22.2948 58.8061C22.2971 58.8052 22.2995 58.8042 22.3018 58.8033C22.3042 58.8023 22.3065 58.8014 22.3088 58.8005C22.3112 58.7995 22.3135 58.7986 22.3159 58.7977C22.3182 58.7967 22.3206 58.7958 22.3229 58.7948C22.3252 58.7939 22.3276 58.793 22.3299 58.792C22.3323 58.7911 22.3346 58.7902 22.337 58.7892C22.3393 58.7883 22.3417 58.7873 22.344 58.7864C22.3463 58.7855 22.3487 58.7845 22.351 58.7836C22.3534 58.7827 22.3557 58.7817 22.3581 58.7808C22.3604 58.7798 22.3627 58.7789 22.3651 58.778C22.3674 58.777 22.3698 58.7761 22.3721 58.7752C22.3745 58.7742 22.3768 58.7733 22.3792 58.7723C22.3815 58.7714 22.3838 58.7705 22.3862 58.7695C22.3885 58.7686 22.3909 58.7677 22.3932 58.7667C22.3956 58.7658 22.3979 58.7648 22.4002 58.7639C22.4026 58.763 22.4049 58.762 22.4073 58.7611C22.4096 58.7602 22.412 58.7592 22.4143 58.7583C22.4167 58.7573 22.419 58.7564 22.4213 58.7555C22.4237 58.7545 22.426 58.7536 22.4284 58.7527C22.4307 58.7517 22.4331 58.7508 22.4354 58.7498C22.4377 58.7489 22.4401 58.748 22.4424 58.747C22.4448 58.7461 22.4471 58.7452 22.4495 58.7442C22.4518 58.7433 22.4542 58.7423 22.4565 58.7414C22.4588 58.7405 22.4612 58.7395 22.4635 58.7386C22.4659 58.7377 22.4682 58.7367 22.4706 58.7358C22.4729 58.7348 22.4752 58.7339 22.4776 58.733C22.4799 58.732 22.4823 58.7311 22.4846 58.7302C22.487 58.7292 22.4893 58.7283 22.4917 58.7273C22.494 58.7264 22.4963 58.7255 22.4987 58.7245C22.501 58.7236 22.5034 58.7227 22.5057 58.7217C22.5081 58.7208 22.5104 58.7198 22.5127 58.7189C22.5151 58.718 22.5174 58.717 22.5198 58.7161C22.5221 58.7152 22.5245 58.7142 22.5268 58.7133C22.5292 58.7123 22.5315 58.7114 22.5338 58.7105C22.5362 58.7095 22.5385 58.7086 22.5409 58.7077C22.5432 58.7067 22.5456 58.7058 22.5479 58.7048C22.5502 58.7039 22.5526 58.703 22.5549 58.702C22.5573 58.7011 22.5596 58.7002 22.562 58.6992C22.5643 58.6983 22.5667 58.6973 22.569 58.6964C22.5713 58.6955 22.5737 58.6945 22.576 58.6936C22.5784 58.6927 22.5807 58.6917 22.5831 58.6908C22.5854 58.6898 22.5877 58.6889 22.5901 58.688C22.5924 58.687 22.5948 58.6861 22.5971 58.6852C22.5995 58.6842 22.6018 58.6833 22.6042 58.6823C22.6065 58.6814 22.6088 58.6805 22.6112 58.6795C22.6135 58.6786 22.6159 58.6777 22.6182 58.6767C22.6206 58.6758 22.6229 58.6748 22.6252 58.6739C22.6276 58.673 22.6299 58.672 22.6323 58.6711C22.6346 58.6702 22.637 58.6692 22.6393 58.6683C22.6417 58.6673 22.644 58.6664 22.6463 58.6655C22.6487 58.6645 22.651 58.6636 22.6534 58.6627C22.6557 58.6617 22.6581 58.6608 22.6604 58.6598C22.6627 58.6589 22.6651 58.658 22.6674 58.657C22.6698 58.6561 22.6721 58.6552 22.6745 58.6542C22.6768 58.6533 22.6792 58.6523 22.6815 58.6514C22.6838 58.6505 22.6862 58.6495 22.6885 58.6486C22.6909 58.6477 22.6932 58.6467 22.6956 58.6458C22.6979 58.6448 22.7002 58.6439 22.7026 58.643C22.7049 58.642 22.7073 58.6411 22.7096 58.6402C22.712 58.6392 22.7143 58.6383 22.7167 58.6373C22.719 58.6364 22.7213 58.6355 22.7237 58.6345C22.726 58.6336 22.7284 58.6327 22.7307 58.6317C22.7331 58.6308 22.7354 58.6298 22.7377 58.6289C22.7401 58.628 22.7424 58.627 22.7448 58.6261C22.7471 58.6252 22.7495 58.6242 22.7518 58.6233C22.7542 58.6223 22.7565 58.6214 22.7588 58.6205C22.7612 58.6195 22.7635 58.6186 22.7659 58.6177C22.7682 58.6167 22.7706 58.6158 22.7729 58.6148C22.7752 58.6139 22.7776 58.613 22.7799 58.612C22.7823 58.6111 22.7846 58.6102 22.787 58.6092C22.7893 58.6083 22.7917 58.6073 22.794 58.6064C22.7963 58.6055 22.7987 58.6045 22.801 58.6036C22.8034 58.6027 22.8057 58.6017 22.8081 58.6008C22.8104 58.5998 22.8127 58.5989 22.8151 58.598C22.8174 58.597 22.8198 58.5961 22.8221 58.5952C22.8245 58.5942 22.8268 58.5933 22.8292 58.5923C22.8315 58.5914 22.8338 58.5905 22.8362 58.5895C22.8385 58.5886 22.8409 58.5877 22.8432 58.5867C22.8456 58.5858 22.8479 58.5848 22.8502 58.5839C22.8526 58.583 22.8549 58.582 22.8573 58.5811C22.8596 58.5802 22.862 58.5792 22.8643 58.5783C22.8667 58.5773 22.869 58.5764 22.8713 58.5755C22.8737 58.5745 22.876 58.5736 22.8784 58.5727C22.8807 58.5717 22.8831 58.5708 22.8854 58.5698C22.8877 58.5689 22.8901 58.568 22.8924 58.567C22.8948 58.5661 22.8971 58.5652 22.8995 58.5642C22.9018 58.5633 22.9042 58.5623 22.9065 58.5614C22.9088 58.5605 22.9112 58.5595 22.9135 58.5586C22.9159 58.5577 22.9182 58.5567 22.9206 58.5558C22.9229 58.5548 22.9252 58.5539 22.9276 58.553C22.9299 58.552 22.9323 58.5511 22.9346 58.5502C22.937 58.5492 22.9393 58.5483 22.9417 58.5473C22.944 58.5464 22.9463 58.5455 22.9487 58.5445C22.951 58.5436 22.9534 58.5427 22.9557 58.5417C22.9581 58.5408 22.9604 58.5398 22.9627 58.5389C22.9651 58.538 22.9674 58.537 22.9698 58.5361C22.9721 58.5352 22.9745 58.5342 22.9768 58.5333C22.9792 58.5323 22.9815 58.5314 22.9838 58.5305C22.9862 58.5295 22.9885 58.5286 22.9909 58.5277C22.9932 58.5267 22.9956 58.5258 22.9979 58.5248C23.0002 58.5239 23.0026 58.523 23.0049 58.522C23.0073 58.5211 23.0096 58.5202 23.012 58.5192C23.0143 58.5183 23.0167 58.5173 23.019 58.5164C23.0213 58.5155 23.0237 58.5145 23.026 58.5136C23.0284 58.5127 23.0307 58.5117 23.0331 58.5108C23.0354 58.5098 23.0377 58.5089 23.0401 58.508C23.0424 58.507 23.0448 58.5061 23.0471 58.5052C23.0495 58.5042 23.0518 58.5033 23.0542 58.5023C23.0565 58.5014 23.0588 58.5005 23.0612 58.4995C23.0635 58.4986 23.0659 58.4977 23.0682 58.4967C23.0706 58.4958 23.0729 58.4948 23.0752 58.4939C23.0776 58.493 23.0799 58.492 23.0823 58.4911C23.0846 58.4902 23.087 58.4892 23.0893 58.4883C23.0917 58.4873 23.094 58.4864 23.0963 58.4855C23.0987 58.4845 23.101 58.4836 23.1034 58.4827C23.1057 58.4817 23.1081 58.4808 23.1104 58.4798C23.1127 58.4789 23.1151 58.478 23.1174 58.477C23.1198 58.4761 23.1221 58.4752 23.1245 58.4742C23.1268 58.4733 23.1292 58.4723 23.1315 58.4714C23.1338 58.4705 23.1362 58.4695 23.1385 58.4686C23.1409 58.4677 23.1432 58.4667 23.1456 58.4658C23.1479 58.4648 23.1502 58.4639 23.1526 58.463C23.1549 58.462 23.1573 58.4611 23.1596 58.4602C23.162 58.4592 23.1643 58.4583 23.1667 58.4573C23.169 58.4564 23.1713 58.4555 23.1737 58.4545C23.176 58.4536 23.1784 58.4527 23.1807 58.4517C23.1831 58.4508 23.1854 58.4498 23.1877 58.4489C23.1901 58.448 23.1924 58.447 23.1948 58.4461C23.1971 58.4452 23.1995 58.4442 23.2018 58.4433C23.2042 58.4423 23.2065 58.4414 23.2088 58.4405C23.2112 58.4395 23.2135 58.4386 23.2159 58.4377C23.2182 58.4367 23.2206 58.4358 23.2229 58.4348C23.2252 58.4339 23.2276 58.433 23.2299 58.432C23.2323 58.4311 23.2346 58.4302 23.237 58.4292C23.2393 58.4283 23.2417 58.4273 23.244 58.4264C23.2463 58.4255 23.2487 58.4245 23.251 58.4236C23.2534 58.4227 23.2557 58.4217 23.2581 58.4208C23.2604 58.4198 23.2627 58.4189 23.2651 58.418C23.2674 58.417 23.2698 58.4161 23.2721 58.4152C23.2745 58.4142 23.2768 58.4133 23.2792 58.4123C23.2815 58.4114 23.2838 58.4105 23.2862 58.4095C23.2885 58.4086 23.2909 58.4077 23.2932 58.4067C23.2956 58.4058 23.2979 58.4048 23.3002 58.4039C23.3026 58.403 23.3049 58.402 23.3073 58.4011C23.3096 58.4002 23.312 58.3992 23.3143 58.3983C23.3167 58.3973 23.319 58.3964 23.3213 58.3955C23.3237 58.3945 23.326 58.3936 23.3284 58.3927C23.3307 58.3917 23.3331 58.3908 23.3354 58.3898C23.3377 58.3889 23.3401 58.388 23.3424 58.387C23.3448 58.3861 23.3471 58.3852 23.3495 58.3842C23.3518 58.3833 23.3542 58.3823 23.3565 58.3814C23.3588 58.3805 23.3612 58.3795 23.3635 58.3786C23.3659 58.3777 23.3682 58.3767 23.3706 58.3758C23.3729 58.3748 23.3752 58.3739 23.3776 58.373C23.3799 58.372 23.3823 58.3711 23.3846 58.3702C23.387 58.3692 23.3893 58.3683 23.3917 58.3673C23.394 58.3664 23.3963 58.3655 23.3987 58.3645C23.401 58.3636 23.4034 58.3627 23.4057 58.3617C23.4081 58.3608 23.4104 58.3598 23.4127 58.3589C23.4151 58.358 23.4174 58.357 23.4198 58.3561C23.4221 58.3552 23.4245 58.3542 23.4268 58.3533C23.4292 58.3523 23.4315 58.3514 23.4338 58.3505C23.4362 58.3495 23.4385 58.3486 23.4409 58.3477C23.4432 58.3467 23.4456 58.3458 23.4479 58.3448C23.4502 58.3439 23.4526 58.343 23.4549 58.342C23.4573 58.3411 23.4596 58.3402 23.462 58.3392C23.4643 58.3383 23.4667 58.3373 23.469 58.3364C23.4713 58.3355 23.4737 58.3345 23.476 58.3336C23.4784 58.3327 23.4807 58.3317 23.4831 58.3308C23.4854 58.3298 23.4877 58.3289 23.4901 58.328C23.4924 58.327 23.4948 58.3261 23.4971 58.3252C23.4995 58.3242 23.5018 58.3233 23.5042 58.3223C23.5065 58.3214 23.5088 58.3205 23.5112 58.3195C23.5135 58.3186 23.5159 58.3177 23.5182 58.3167C23.5206 58.3158 23.5229 58.3148 23.5252 58.3139L20.5541 50.8861ZM16.864 52.3634C15.6814 52.8702 14.5695 53.3829 13.5308 53.9023L17.1086 61.0577C17.9899 60.617 18.958 60.1697 20.0154 59.7166L16.864 52.3634ZM19.3197 57.48V42.6H11.3197V57.48H19.3197ZM17.2351 46.1116C18.0531 45.6654 19.2437 45.0501 20.8285 44.2577L17.2508 37.1023C15.6356 37.9099 14.3463 38.5746 13.4043 39.0884L17.2351 46.1116ZM20.9674 44.1849C22.5828 43.2964 24.3165 42.3287 26.1679 41.2822L22.2315 34.3177C20.4029 35.3513 18.6965 36.3036 17.112 37.1751L20.9674 44.1849ZM26.1679 41.2822C28.0723 40.2059 29.8635 39.1233 31.5396 38.0338L27.1797 31.3262C25.6559 32.3167 24.0071 33.3141 22.2315 34.3177L26.1679 41.2822ZM31.6535 37.9569C33.3286 36.7844 34.7468 35.6697 35.7881 34.6284L30.1313 28.9716C29.5726 29.5303 28.5908 30.3356 27.0658 31.4031L31.6535 37.9569ZM32.9597 35.8H48.6797V27.8H32.9597V35.8ZM44.6797 31.8V129H52.6797V31.8H44.6797ZM48.6797 125H28.6397V133H48.6797V125Z" fill="#CA4E1E"/>
</svg>
