<svg width="72" height="150" viewBox="0 0 72 150" fill="none" xmlns="http://www.w3.org/2000/svg">
<path d="M10.0997 129H6.09969V133H10.0997V129ZM10.0997 114.84L6.74746 112.658L6.09969 113.653V114.84H10.0997ZM33.3797 79.08L30.0515 76.8612L30.0394 76.8794L30.0275 76.8977L33.3797 79.08ZM38.2997 71.4L34.9385 69.2315L34.9134 69.2703L34.8893 69.3097L38.2997 71.4ZM42.1397 63.84L38.4338 62.3345L38.4134 62.3847L38.3944 62.4355L42.1397 63.84ZM42.0197 49.56L45.1074 47.0172L45.1074 47.0172L42.0197 49.56ZM29.8997 54.12L26.0101 53.1865L25.9923 53.2607L25.9774 53.3355L29.8997 54.12ZM29.2997 65.64V69.64H33.2997V65.64H29.2997ZM9.85969 65.64H5.85969V69.64H9.85969V65.64ZM12.6197 45.12L16.3198 46.6397L16.3245 46.6282L16.3291 46.6168L12.6197 45.12ZM21.3797 34.44L23.5359 37.8091L23.5596 37.7939L23.5831 37.7784L21.3797 34.44ZM56.7797 37.32L53.9012 40.0975L53.926 40.1232L53.9513 40.1484L56.7797 37.32ZM61.5797 67.08L57.8417 65.656L57.8268 65.6952L57.8127 65.7346L61.5797 67.08ZM56.6597 76.92L53.3059 74.74L53.299 74.7507L53.2922 74.7613L56.6597 76.92ZM50.1797 86.76L46.8634 84.5234L46.8561 84.5343L50.1797 86.76ZM32.4197 113.28L29.0961 111.054L24.9269 117.28H32.4197V113.28ZM60.8597 113.28H64.8597V109.28H60.8597V113.28ZM60.8597 129V133H64.8597V129H60.8597ZM14.0997 129V114.84H6.09969V129H14.0997ZM13.4519 117.022L36.7319 81.2623L30.0275 76.8977L6.74746 112.658L13.4519 117.022ZM36.7079 81.2988C38.4936 78.6202 40.1613 76.0173 41.7101 73.4902L34.8893 69.3097C33.3981 71.7427 31.7858 74.2598 30.0515 76.8612L36.7079 81.2988ZM41.6609 73.5685C43.4037 70.8672 44.817 68.0924 45.885 65.2445L38.3944 62.4355C37.5423 64.7076 36.3957 66.9728 34.9385 69.2315L41.6609 73.5685ZM45.8456 65.3455C47.0824 62.3009 47.6997 59.1091 47.6997 55.8H39.6997C39.6997 58.0909 39.2769 60.2591 38.4338 62.3345L45.8456 65.3455ZM47.6997 55.8C47.6997 52.5857 47.077 49.4088 45.1074 47.0172L38.932 52.1028C39.2024 52.4312 39.6997 53.4143 39.6997 55.8H47.6997ZM45.1074 47.0172C43.1532 44.6442 40.4528 43.52 37.4597 43.52V51.52C38.3065 51.52 38.6462 51.7558 38.932 52.1028L45.1074 47.0172ZM37.4597 43.52C34.5427 43.52 31.7319 44.3509 29.5913 46.4916L35.2481 52.1484C35.5074 51.8891 36.0567 51.52 37.4597 51.52V43.52ZM29.5913 46.4916C27.7688 48.3141 26.6257 50.6217 26.0101 53.1865L33.7892 55.0535C34.1337 53.6183 34.6706 52.7259 35.2481 52.1484L29.5913 46.4916ZM25.9774 53.3355C25.5161 55.6421 25.2997 58.1508 25.2997 60.84H33.2997C33.2997 58.5692 33.4833 56.5979 33.822 54.9045L25.9774 53.3355ZM25.2997 60.84V65.64H33.2997V60.84H25.2997ZM29.2997 61.64H9.85969V69.64H29.2997V61.64ZM13.8597 65.64V60.48H5.85969V65.64H13.8597ZM13.8597 60.48C13.8597 55.1445 14.7115 50.5554 16.3198 46.6397L8.91961 43.6003C6.84785 48.6446 5.85969 54.2955 5.85969 60.48H13.8597ZM16.3291 46.6168C17.87 42.7979 20.2614 39.9048 23.5359 37.8091L19.2235 31.0709C14.498 34.0952 11.0493 38.3221 8.91029 43.6232L16.3291 46.6168ZM23.5831 37.7784C26.7362 35.6974 31.1344 34.48 37.0997 34.48V26.48C30.105 26.48 24.0232 27.9026 19.1763 31.1016L23.5831 37.7784ZM37.0997 34.48C45.1534 34.48 50.5036 36.5763 53.9012 40.0975L59.6582 34.5425C54.2558 28.9437 46.4859 26.48 37.0997 26.48V34.48ZM53.9513 40.1484C57.4891 43.6863 59.4997 48.8344 59.4997 56.16H67.4997C67.4997 47.3256 65.0302 39.9137 59.6081 34.4916L53.9513 40.1484ZM59.4997 56.16C59.4997 59.6374 58.9335 62.7902 57.8417 65.656L65.3176 68.504C66.7859 64.6498 67.4997 60.5226 67.4997 56.16H59.4997ZM57.8127 65.7346C56.7245 68.7817 55.2279 71.7831 53.3059 74.74L60.0135 79.1C62.2515 75.6569 64.0349 72.0983 65.3467 68.4253L57.8127 65.7346ZM53.2922 74.7613C51.3108 77.8523 49.168 81.1062 46.8634 84.5234L53.496 88.9966C55.8313 85.5338 58.0086 82.2277 60.0272 79.0787L53.2922 74.7613ZM46.8561 84.5343L29.0961 111.054L35.7433 115.506L53.5033 88.9857L46.8561 84.5343ZM32.4197 117.28H60.8597V109.28H32.4197V117.28ZM56.8597 113.28V129H64.8597V113.28H56.8597ZM60.8597 125H10.0997V133H60.8597V125Z" fill="#CA4E1E"/>
</svg>
