<svg width="72" height="150" viewBox="0 0 72 150" fill="none" xmlns="http://www.w3.org/2000/svg">
<path d="M37.4152 129H33.4152V133H37.4152V129ZM37.4152 107.16H41.4152V103.16H37.4152V107.16ZM7.53516 107.16H3.53516V111.16H7.53516V107.16ZM7.53516 92.4L3.84436 90.8579L3.53516 91.598V92.4H7.53516ZM32.8552 31.8V27.8H30.1913L29.1644 30.2579L32.8552 31.8ZM56.1352 31.8H60.1352V27.8H56.1352V31.8ZM56.1352 92.28H52.1352V96.28H56.1352V92.28ZM65.1352 92.28H69.1352V88.28H65.1352V92.28ZM65.1352 107.16V111.16H69.1352V107.16H65.1352ZM56.1352 107.16V103.16H52.1352V107.16H56.1352ZM56.1352 129V133H60.1352V129H56.1352ZM22.7752 92.28L19.014 90.9184L17.073 96.28H22.7752V92.28ZM37.4152 92.28V96.28H41.4152V92.28H37.4152ZM37.4152 51.84H41.4152L33.654 50.4784L37.4152 51.84ZM41.4152 129V107.16H33.4152V129H41.4152ZM37.4152 103.16H7.53516V111.16H37.4152V103.16ZM11.5352 107.16V92.4H3.53516V107.16H11.5352ZM11.2259 93.9421L36.546 33.3421L29.1644 30.2579L3.84436 90.8579L11.2259 93.9421ZM32.8552 35.8H56.1352V27.8H32.8552V35.8ZM52.1352 31.8V92.28H60.1352V31.8H52.1352ZM56.1352 96.28H65.1352V88.28H56.1352V96.28ZM61.1352 92.28V107.16H69.1352V92.28H61.1352ZM65.1352 103.16H56.1352V111.16H65.1352V103.16ZM52.1352 107.16V129H60.1352V107.16H52.1352ZM56.1352 125H37.4152V133H56.1352V125ZM22.7752 96.28H37.4152V88.28H22.7752V96.28ZM41.4152 92.28V51.84H33.4152V92.28H41.4152ZM33.654 50.4784L19.014 90.9184L26.5363 93.6416L41.1763 53.2016L33.654 50.4784Z" fill="#CA4E1E"/>
</svg>
